# AST/ASF file generated using VICON BodyLanguage
# -----------------------------------------------
:version 1.10
:name VICON
:units
  mass 1.0
  length 0.45
  angle deg
:documentation
   .ast/.asf automatically generated from VICON data using
   VICON BodyBuilder and BodyLanguage model FoxedUp or BRILLIANT.MOD
:root
   order TX TY TZ RX RY RZ
   axis XYZ
   position 0 0 0  
   orientation 0 0 0 
:bonedata
  begin
     id 1 
     name lhipjoint
     direction 0.567725 -0.736092 0.368589 
     length 2.42353 
     axis 0 0 0  XYZ
  end
  begin
     id 2 
     name lfemur
     direction 0.34202 -0.939693 0  
     length 7.24894  
     axis 0 0 20  XYZ
    dof rx ry rz
    limits (-160.0 20.0)
           (-70.0 70.0)
           (-60.0 70.0)
  end
  begin
     id 3 
     name ltibia
     direction 0.34202 -0.939693 0   
     length 7.6997   
     axis 0 0 20   XYZ
    dof rx
    limits (-10.0 170.0)
  end
  begin
     id 4 
     name lfoot
     direction 0.100767 -0.276854 0.955614   
     length 2.37556   
     axis -90 7.62852e-016 20   XYZ
    dof rx rz
    limits (-45.0 90.0)
           (-70.0 20.0)
  end
  begin
     id 5 
     name ltoes
     direction 1.53592e-011 -4.21894e-011 1   
     length 1.18363   
     axis -90 7.62852e-016 20   XYZ
    dof rx
    limits (-90.0 20.0)
  end
  begin
     id 6 
     name rhipjoint
     direction -0.556459 -0.742938 0.372017   
     length 2.4012  
     axis 0 0 0  XYZ 
  end
  begin
     id 7 
     name rfemur
     direction -0.34202 -0.939693 0   
     length 7.5119   
     axis 0 0 -20   XYZ
    dof rx ry rz
    limits (-160.0 20.0)
           (-70.0 70.0)
           (-70.0 60.0)
  end
  begin
     id 8 
     name rtibia
     direction -0.34202 -0.939693 0   
     length 7.50155   
     axis 0 0 -20   XYZ
    dof rx
    limits (-10.0 170.0)
 end
 begin
     id 9 
     name rfoot
     direction -0.118427 -0.325376 0.938139   
     length 2.32487  
     axis -90 -7.62852e-016 -20   XYZ
    dof rx rz
    limits (-45.0 90.0)
           (-20.0 70.0)
  end
  begin
     id 10 
     name rtoes
     direction -1.53525e-011 -4.21868e-011 1   
     length 1.15233   
     axis -90 -7.62852e-016 -20   XYZ
    dof rx
    limits (-90.0 20.0)
  end
  begin
     id 11 
     name lowerback
     direction 0.0287568 0.999577 -0.00434502   
     length 2.15243   
     axis 0 0 0   XYZ
    dof rx ry rz
    limits (-20.0 45.0)
           (-30.0 30.0)
           (-30.0 30.0)
  end
  begin
     id 12 
     name upperback
     direction 0.0294009 0.99956 0.00404628   
     length 2.15427   
     axis 0 0 0   XYZ
    dof rx ry rz
    limits (-20.0 45.0)
           (-30.0 30.0)
           (-30.0 30.0)
  end
  begin
     id 13 
     name thorax
     direction 0.0151014 0.999868 0.0059419   
     length 2.14898   
     axis 0 0 0   XYZ
    dof rx ry rz
    limits (-20.0 45.0)
           (-30.0 30.0)
           (-30.0 30.0)
  end
  begin
     id 14 
     name lowerneck
     direction -0.0249197 0.989906 0.139515   
     length 1.6861   
     axis 0 0 0   XYZ
    dof rx ry rz
    limits (-20.0 45.0)
           (-30.0 30.0)
           (-30.0 30.0)
  end
  begin
     id 15 
     name upperneck
     direction 0.0438463 0.988795 -0.142693   
     length 1.71276   
     axis 0 0 0   XYZ
    dof rx ry rz
    limits (-20.0 45.0)
           (-30.0 30.0)
           (-30.0 30.0)
  end
  begin
     id 16
     name head
     direction 0.0148499 0.997845 -0.0639186  
     length 1.7209  
     axis 0 0 0   XYZ
    dof rx ry rz
    limits (-20.0 45.0)
           (-30.0 30.0)
           (-30.0 30.0)
  end
  begin
     id 17 
     name lclavicle
     direction 0.940298 0.323464 -0.105876  
     length 3.9048  
     axis 0 0 0   XYZ
    dof ry rz
    limits (-20.0 10.0)
           (0.0 20.0)
  end
  begin
     id 18 
     name lhumerus
     direction 1 -4.48954e-011 -4.9675e-028   
     length 4.6851   
     axis 180 -30 -90   XYZ
    dof rx ry rz
    limits (-60.0 90.0)
           (-90.0 90.0)
           (-90.0 90.0)
  end
  begin
     id 19
     name lradius
     direction 1 -4.48992e-011 -1.03359e-026   
     length 3.39626   
     axis 180 -30 -90   XYZ
    dof rx
    limits (-10.0 170.0)
  end
  begin
     id 20
     name lwrist
     direction 1 -4.48906e-011 -1.67336e-026   
     length 1.69813   
     axis 9.90442e-015 90 90   XYZ
    dof ry
    limits (-180.0 0.0)
 end
  begin
     id 21 
     name lhand
     direction 1 -4.49006e-011 -3.34673e-026   
     length 0.486078   
     axis 2.1355e-014 90 90   XYZ
    dof rx rz
    limits (-90.0 90.0)
           (-45.0 45.0)
  end
  begin
     id 22 
     name lfingers
     direction 1 -4.48992e-011 -6.69345e-026   
     length 0.391889   
     axis 4.27099e-014 90 90   XYZ
    dof rx
    limits (0.0 90.0)
  end
  begin
     id 23
     name lthumb
     direction 0.707107 -6.34926e-011 0.707107   
     length 0.562676   
     axis -90 45 2.85299e-015   XYZ
    dof rx rz
    limits (-45.0 45.0)
           (-45.0 45.0)
  end
  begin
     id 24 
     name rclavicle
     direction -0.882459 0.414895 -0.221648   
     length 3.44646  
     axis 0 0 0   XYZ 
    dof ry rz
    limits (-10.0 20.0)
           (-20.0 0.0)
  end
  begin
     id 25 
     name rhumerus
     direction -1 -4.48962e-011 -2.37984e-027  
     length 5.55576   
     axis 180 30 90   XYZ
    dof rx ry rz
    limits (-90.0 60.0)
           (-90.0 90.0)
           (-90.0 90.0)
  end
  begin
     id 26 
     name rradius
     direction -1 -4.48982e-011 -6.86791e-027   
     length 3.32774   
     axis 180 30 90   XYZ
    dof rx
    limits (-10.0 170.0)
  end
  begin
     id 27 
     name rwrist
     direction -1 -4.48961e-011 -1.67336e-026   
     length 1.66387   
     axis 9.90442e-015 -90 -90   XYZ
    dof ry
    limits (-180.0 0.0)
  end
  begin
     id 28
     name rhand
     direction -1 -4.4897e-011 -3.34673e-026   
     length 0.507628   
     axis 2.1355e-014 -90 -90   XYZ
    dof rx rz
    limits (-90.0 90.0)
           (-45.0 45.0)
  end
  begin
     id 29
     name rfingers
     direction -1 -4.48854e-011 -6.69345e-026   
     length 0.409263   
     axis 4.27099e-014 -90 -90   XYZ
    dof rx
    limits (0.0 90.0)
  end
  begin
     id 30
     name rthumb
     direction -0.707107 -6.34913e-011 0.707107   
     length 0.587622   
     axis -90 -45 -2.85299e-015   XYZ
    dof rx rz
    limits (-45.0 45.0)
           (-45.0 45.0)
  end
:hierarchy
  begin
    root lhipjoint rhipjoint lowerback
    lhipjoint lfemur
    lfemur ltibia
    ltibia lfoot
    lfoot ltoes
    rhipjoint rfemur
    rfemur rtibia
    rtibia rfoot
    rfoot rtoes
    lowerback upperback
    upperback thorax
    thorax lowerneck lclavicle rclavicle
    lowerneck upperneck
    upperneck head
    lclavicle lhumerus
    lhumerus lradius
    lradius lwrist
    lwrist lhand lthumb
    lhand lfingers
    rclavicle rhumerus
    rhumerus rradius
    rradius rwrist
    rwrist rhand rthumb
    rhand rfingers
  end

#!OML:ASF E:\motion texture\Top Level 1\Subject 1\Session 1\male.ASF
:FULLY-SPECIFIED
:DEGREES
17
root 25.7209 17.8481 5.39284 46.0903 -78.3242 -39.948
lowerback -1.15239 -0.286139 4.02866
upperback -1.00743 -0.494812 4.36963
thorax -0.381624 -0.294944 2.22735
lowerneck -9.18167 -7.68392 -8.19447
upperneck 7.11358 -10.3557 10.6413
head 4.62191 -4.81214 3.84505
rclavicle -4.4975e-015 4.05521e-014
rhumerus -30.936 -2.4145 -80.2401
rradius 55.5734
rwrist 6.03799
rhand -17.7808 -35.0138
rfingers 7.12502
rthumb 8.48187 -64.8234
lclavicle -4.4975e-015 4.05521e-014
lhumerus -30.9416 20.9328 76.8145
lradius 19.8681
lwrist -38.0463
lhand -12.3812 20.0425
lfingers 7.12502
lthumb 13.6896 49.5722
rfemur -14.7163 4.11 31.6001
rtibia 19.4417
rfoot -7.81712 -14.0359
rtoes 16.2073
lfemur -21.1301 -3.56618 -7.79451
ltibia 63.2622
lfoot 3.47922 -3.97238
ltoes -12.5748
18
root 25.5743 17.8571 5.38266 46.7008 -78.3351 -40.5612
lowerback -1.14059 -0.137396 4.11907
upperback -0.983964 -0.29668 4.32135
thorax -0.366699 -0.195784 2.12843
lowerneck -9.19655 -7.70595 -8.23469
upperneck 6.99618 -10.3669 10.6347
head 4.59136 -4.82009 3.84907
rclavicle 1.86361e-014 1.70955e-014
rhumerus -31.2402 -3.04841 -80.4021
rradius 53.1252
rwrist 6.7135
rhand -18.1335 -34.759
rfingers 7.12502
rthumb 8.14149 -64.5821
lclavicle 1.86361e-014 1.70955e-014
lhumerus -31.8535 22.4887 75.3389
lradius 19.4985
lwrist -38.5004
lhand -12.6652 20.157
lfingers 7.12502
lthumb 13.4159 49.705
rfemur -13.9427 4.1091 31.8739
rtibia 19.0031
rfoot -8.0728 -13.9521
rtoes 16.0394
lfemur -22.3238 -3.29168 -7.68059
ltibia 63.6822
lfoot 2.28784 -3.50034
ltoes -12.8452
19
root 25.429 17.865 5.37413 47.3294 -78.3511 -41.1982
lowerback -1.11347 0.00353191 4.22874
upperback -0.96091 -0.10804 4.27052
thorax -0.359849 -0.101575 2.01614
lowerneck -9.20915 -7.71629 -8.27392
upperneck 6.88021 -10.3619 10.6214
head 4.55889 -4.82044 3.85245
rclavicle 1.22004e-014 -9.54166e-015
rhumerus -31.5324 -3.54919 -80.5812
rradius 50.785
rwrist 7.27602
rhand -18.3619 -34.4408
rfingers 7.12502
rthumb 7.92105 -64.2724
lclavicle 1.22004e-014 -9.54166e-015
lhumerus -32.8298 23.8471 73.8662
lradius 19.2388
lwrist -38.6964
lhand -12.9124 20.3109
lfingers 7.12502
lthumb 13.1776 49.8745
rfemur -13.167 4.08705 32.131
rtibia 18.563
rfoot -8.31713 -13.8363
rtoes 15.8354
lfemur -23.4882 -3.03811 -7.58098
ltibia 63.9577
lfoot 1.06393 -3.02617
ltoes -13.0602
20
root 25.2846 17.8719 5.36671 47.9276 -78.3669 -41.8114
lowerback -1.05228 0.134378 4.34256
upperback -0.948695 0.0701882 4.22296
thorax -0.382219 -0.013046 1.90483
lowerneck -9.22574 -7.71798 -8.31707
upperneck 6.77631 -10.3433 10.59
head 4.52861 -4.81469 3.85191
rclavicle -1.68967e-015 -2.06736e-014
rhumerus -31.8302 -3.92224 -80.7719
rradius 48.568
rwrist 7.66485
rhand -18.4094 -34.1278
rfingers 7.12502
rthumb 7.87523 -63.9611
lclavicle -1.68967e-015 -2.06736e-014
lhumerus -33.8647 25.0323 72.4042
lradius 19.0635
lwrist -38.6956
lhand -13.1043 20.4808
lfingers 7.12502
lthumb 12.9927 50.0563
rfemur -12.3847 4.04777 32.3698
rtibia 18.1167
rfoot -8.55153 -13.705
rtoes 15.5931
lfemur -24.6135 -2.80887 -7.49341
ltibia 64.0816
lfoot -0.195399 -2.55453
ltoes -13.2214
21
root 25.1408 17.8774 5.36019 48.5426 -78.3859 -42.4452
lowerback -0.995164 0.26066 4.4643
upperback -0.928516 0.241525 4.17613
thorax -0.393109 0.0721265 1.78964
lowerneck -9.23671 -7.71676 -8.35284
upperneck 6.65753 -10.3195 10.5457
head 4.49123 -4.80713 3.84707
rclavicle -4.14963e-015 -1.31198e-014
rhumerus -32.0982 -4.20133 -80.9769
rradius 46.4557
rwrist 7.84315
rhand -18.2919 -33.7714
rfingers 7.12502
rthumb 7.9886 -63.6005
lclavicle -4.14963e-015 -1.31198e-014
lhumerus -34.9032 26.0264 70.9902
lradius 18.9596
lwrist -38.5073
lhand -13.2205 20.6334
lfingers 7.12502
lthumb 12.8806 50.2159
rfemur -11.6007 4.0068 32.5985
rtibia 17.6708
rfoot -8.78518 -13.5608
rtoes 15.3496
lfemur -25.6937 -2.59541 -7.41041
ltibia 64.0489
lfoot -1.45135 -2.07781
ltoes -13.2705
22
root 24.9976 17.8813 5.35476 49.236 -78.4103 -43.1475
lowerback -0.910116 0.388062 4.60187
upperback -0.933744 0.417831 4.12892
thorax -0.4447 0.158858 1.66495
lowerneck -9.23191 -7.71311 -8.39117
upperneck 6.55137 -10.2937 10.4937
head 4.45459 -4.79923 3.84089
rclavicle -1.33186e-014 -4.21423e-014
rhumerus -32.3825 -4.38427 -81.1984
rradius 44.446
rwrist 7.78625
rhand -18.0643 -33.3944
rfingers 7.12502
rthumb 8.20827 -63.215
lclavicle -1.33186e-014 -4.21423e-014
lhumerus -35.9702 26.8124 69.6243
lradius 18.9178
lwrist -38.1675
lhand -13.2427 20.7274
lfingers 7.12502
lthumb 12.8593 50.3112
rfemur -10.8307 4.00441 32.8267
rtibia 17.2282
rfoot -9.01672 -13.4338
rtoes 15.1247
lfemur -26.7396 -2.37942 -7.32381
ltibia 63.8583
lfoot -2.65415 -1.58358
ltoes -13.3433
23
root 24.855 17.8836 5.35011 49.9877 -78.4329 -43.902
lowerback -0.832287 0.517735 4.75215
upperback -0.938558 0.596558 4.08304
thorax -0.490577 0.246627 1.53428
lowerneck -9.21999 -7.71138 -8.42688
upperneck 6.43868 -10.2704 10.4371
head 4.41463 -4.793 3.83296
rclavicle 1.17531e-014 -4.45278e-014
rhumerus -32.6405 -4.49666 -81.4348
rradius 42.5069
rwrist 7.57444
rhand -17.8453 -32.8728
rfingers 7.12502
rthumb 8.41962 -62.685
lclavicle 1.17531e-014 -4.45278e-014
lhumerus -37.0066 27.3637 68.364
lradius 18.9359
lwrist -37.6554
lhand -13.2313 20.7508
lfingers 7.12502
lthumb 12.8703 50.334
rfemur -10.0736 4.02526 33.0599
rtibia 16.7952
rfoot -9.25288 -13.3223
rtoes 14.9252
lfemur -27.7407 -2.16369 -7.22783
ltibia 63.5042
lfoot -3.739 -1.06486
ltoes -13.4121
24
root 24.7132 17.8841 5.34659 50.8584 -78.4626 -44.7569
lowerback -0.785483 0.654706 4.91829
upperback -0.937438 0.782125 4.03702
thorax -0.51145 0.337953 1.39476
lowerneck -9.20718 -7.71166 -8.46406
upperneck 6.3164 -10.2497 10.3857
head 4.37227 -4.78797 3.82679
rclavicle 4.5969e-015 3.06128e-014
rhumerus -32.865 -4.53708 -81.6906
rradius 40.6448
rwrist 7.28673
rhand -17.6994 -32.2796
rfingers 7.12502
rthumb 8.56043 -62.0861
lclavicle 4.5969e-015 3.06128e-014
lhumerus -37.9937 27.7563 67.1914
lradius 18.9873
lwrist -37.0735
lhand -13.1824 20.663
lfingers 7.12502
lthumb 12.9173 50.2432
rfemur -9.35013 4.08496 33.2994
rtibia 16.3859
rfoot -9.49705 -13.2302
rtoes 14.766
lfemur -28.7102 -1.93258 -7.12428
ltibia 62.9961
lfoot -4.70097 -0.510396
ltoes -13.5166
25
root 24.572 17.8833 5.34364 51.7992 -78.4978 -45.6685
lowerback -0.73336 0.792145 5.09437
upperback -0.949721 0.969664 3.98548
thorax -0.547492 0.429748 1.24379
lowerneck -9.18751 -7.71021 -8.49858
upperneck 6.20666 -10.2293 10.3378
head 4.3327 -4.78287 3.82136
rclavicle -2.71093e-014 4.29375e-014
rhumerus -33.0928 -4.51563 -81.9687
rradius 38.8688
rwrist 7.05108
rhand -17.6289 -31.6665
rfingers 7.12502
rthumb 8.62846 -61.4702
lclavicle -2.71093e-014 4.29375e-014
lhumerus -38.9583 27.9491 66.1082
lradius 19.0842
lwrist -36.3987
lhand -13.1115 20.5662
lfingers 7.12502
lthumb 12.9857 50.142
rfemur -8.65267 4.18415 33.5431
rtibia 15.9987
rfoot -9.73778 -13.1718
rtoes 14.589
lfemur -29.6362 -1.69238 -7.01661
ltibia 62.3286
lfoot -5.53852 0.0806359
ltoes -13.7204
